<svg fill="#000000" xmlns="http://www.w3.org/2000/svg" xmlns:xlink="http://www.w3.org/1999/xlink" version="1.1" x="0px" y="0px" viewBox="0 0 100 100" style="enable-background:new 0 0 100 100;" xml:space="preserve"><g><path d="M50,11.2c10.4,0,20.1,4,27.4,11.3s11.3,17,11.3,27.4s-4,20.1-11.3,27.4S60.4,88.8,50,88.8s-20.1-4-27.4-11.3   S11.2,60.4,11.2,50s4-20.1,11.3-27.4S39.6,11.2,50,11.2 M50,5C25.1,5,5,25.1,5,50s20.1,45,45,45s45-20.1,45-45S74.9,5,50,5L50,5z"/><g><path d="M48.1,60.2c1.2,0,2.5,0,3.7,0c0.4,0,0.8-0.2,1-0.6c0.1-0.3,0.1-0.6,0.1-0.9c0-0.4,0.1-0.7,0.1-1.1c0.2-1.1,0.5-2.2,1-3.3    c0.5-1,1.1-1.8,1.8-2.6c0.6-0.6,1.2-1.2,1.8-1.7c0.8-0.8,1.7-1.7,2.5-2.5c0.5-0.5,1.1-1.3,1.5-1.8c0.8-1.2,1.5-2.6,1.9-4    c0.6-2.5,0.4-5.1-0.5-7.5c-1.6-4.3-5.4-7.7-9.9-8.7c-4.7-1.1-9.7,0.4-13.1,3.8c-1.7,1.7-2.9,3.8-3.5,6.1c-0.2,0.6-0.4,1.2-0.4,1.8    c0,0.6,0.5,0.9,1,0.9c0.7,0,1.3,0,2,0c0.6,0,1.1,0,1.7,0c0.3,0,0.5-0.1,0.7-0.3c0.2-0.2,0.3-0.5,0.3-0.8c0.1-0.6,0.4-1.2,0.6-1.7    c1.1-2.1,3-3.7,5.3-4.3c2.3-0.6,4.8-0.2,6.8,1.2c1.9,1.3,3.2,3.4,3.5,5.7c0.3,2.4-0.2,5-2,6.7c-0.3,0.3-0.8,0.8-1.1,1.1l-2.5,2.7    c-0.6,0.7-1.3,1.4-2,2.1c-1.8,1.9-2.9,4.3-3.3,6.8c-0.1,0.7-0.2,1.3-0.2,2C47.1,59.6,47.4,60.2,48.1,60.2z"/><path d="M48.1,75c-0.5,0-1-0.4-1-1v-3.7c0-0.5,0.4-1,1-1h3.7c0.5,0,1,0.4,1,1V74c0,0.5-0.4,1-1,1H48.1z"/></g></g></svg>