<svg xmlns="http://www.w3.org/2000/svg" viewBox="0 0 16 16" version="1.1" fill="black">
    <g transform="rotate(-90, 8, 8) scale(-1, 1) translate(-16, 0)">
      <g transform="translate(0,-1036.3622)">
          <g transform="translate(1.0146668,-0.00305963)">
              <g transform="translate(-1.0281541,1.0030596)">
                  <path d="M 5.5644531,1.03125 1.4355469,1.6152344 2.953125,3.1328125 C 1.8967723,4.2353432 1.2504777,5.6139665 1.0605469,7.0566406 0.86439876,8.5465406 1.1460191,10.09805 1.9375,11.46875 3.5204002,14.21045 6.752593,15.549869 9.8105469,14.730469 12.868501,13.911169 14.999991,11.13465 15,7.96875 14.999992,4.80305 12.868504,2.0264313 9.8105469,1.2070312 L 9.5527344,2.1738281 C 12.178179,2.8773281 14.00003,5.2526031 14,7.9707031 14.000016,10.688703 12.178162,13.060172 9.5527344,13.763672 6.927271,14.467172 4.1617453,13.32275 2.8027344,10.96875 1.4690217,8.6588103 1.8320474,5.7656115 3.6621094,3.8417969 l 1.3125,1.3125 0.1425781,-0.9902344 z" transform="translate(0.0134873,1035.3622)"/>
              </g>
          </g>
      </g>
    </g>
</svg>