<svg fill="#fff" xmlns="http://www.w3.org/2000/svg" xmlns:xlink="http://www.w3.org/1999/xlink" version="1.1" x="0px" y="0px" viewBox="0 0 100 100" style="enable-background:new 0 0 100 100;" xml:space="preserve"><g><path d="M70.1,72.3h-0.7c-4.4,0-8.6-2.2-11-5.9L47.5,50l10.9-16.4c2.5-3.7,6.6-5.9,11-5.9h0.7v10.8L95,24.1L70.1,9.7v10.8h-0.7   c-6.9,0-13.2,3.4-17,9.1l-9.3,13.9l-9.3-13.9c-3.8-5.7-10.2-9.1-17-9.1H8.6c-2,0-3.6,1.6-3.6,3.6s1.6,3.6,3.6,3.6h8.3   c4.4,0,8.6,2.2,11,5.9L38.8,50L27.9,66.4c-2.5,3.7-6.6,5.9-11,5.9H8.6c-2,0-3.6,1.6-3.6,3.6s1.6,3.6,3.6,3.6h8.3   c6.9,0,13.2-3.4,17-9.1l9.3-13.9l9.3,13.9c3.8,5.7,10.2,9.1,17,9.1h0.7v10.8L95,75.9L70.1,61.6V72.3z"/></g></svg>