<svg fill="#000000" xmlns="http://www.w3.org/2000/svg" xmlns:xlink="http://www.w3.org/1999/xlink" version="1.1" x="0px" y="0px" viewBox="0 0 60 60" style="enable-background:new 0 0 60 60;" xml:space="preserve"><g><path d="M53,10.4H40.8V8.1c0-2.5-2-4.5-4.5-4.5H23.7c-2.5,0-4.5,2-4.5,4.5v2.3H7c-0.8,0-1.5,0.7-1.5,1.5s0.7,1.5,1.5,1.5h5l0,37.6   c0.1,3,2.6,5.4,5.5,5.4h25c2.9,0,5.4-2.4,5.5-5.5V13.4h5c0.8,0,1.5-0.7,1.5-1.5S53.8,10.4,53,10.4z M22.2,8.1   c0-0.8,0.7-1.5,1.5-1.5h12.5c0.8,0,1.5,0.7,1.5,1.5v2.3H22.2V8.1z M45,50.8c0,1.4-1.2,2.6-2.5,2.6h-25c-1.3,0-2.5-1.2-2.5-2.5V13.4   h30L45,50.8z"/><path d="M30,45.8c0.8,0,1.5-0.7,1.5-1.5v-22c0-0.8-0.7-1.5-1.5-1.5s-1.5,0.7-1.5,1.5v22C28.5,45.2,29.2,45.8,30,45.8z"/><path d="M37.6,45.8c0.8,0,1.5-0.7,1.5-1.5v-22c0-0.8-0.7-1.5-1.5-1.5s-1.5,0.7-1.5,1.5v22C36.1,45.2,36.8,45.8,37.6,45.8z"/><path d="M22.4,45.8c0.8,0,1.5-0.7,1.5-1.5v-22c0-0.8-0.7-1.5-1.5-1.5s-1.5,0.7-1.5,1.5v22C20.9,45.2,21.5,45.8,22.4,45.8z"/></g></svg>